<svg xmlns="http://www.w3.org/2000/svg" xmlns:xlink="http://www.w3.org/1999/xlink" width="1191" height="294" viewBox="0 0 1191 294"><defs><linearGradient id="gold" x1="0" y1="0" x2="0" y2="1"><stop offset="0" stop-color="#FFF0C7"/><stop offset=".28" stop-color="#EDBD70"/><stop offset=".5" stop-color="#B77832"/><stop offset=".7" stop-color="#F4CF8E"/><stop offset="1" stop-color="#BF8038"/></linearGradient></defs><path d="M1384 0L1022 0L563 634Q512 632 480 632Q467 632 452.0 632.5Q437 633 421 634L421 240Q421 112 449 81Q487 37 563 37L616 37L616 0L35 0L35 37L86 37Q172 37 209 93Q230 124 230 240L230 1116Q230 1244 202 1275Q163 1319 86 1319L35 1319L35 1356L529 1356Q745 1356 847.5 1324.5Q950 1293 1021.5 1208.5Q1093 1124 1093 1007Q1093 882 1011.5 790.0Q930 698 759 660L1039 271Q1135 137 1204.0 93.0Q1273 49 1384 37ZM421 697Q440 697 454.0 696.5Q468 696 477 696Q671 696 769.5 780.0Q868 864 868 994Q868 1121 788.5 1200.5Q709 1280 578 1280Q520 1280 421 1261Z" transform="translate(40.000 176.000) scale(0.087891 -0.087891)" fill="url(#gold)"/><path d="M937 454L412 454L320 240Q286 161 286 122Q286 91 315.5 67.5Q345 44 443 37L443 0L16 0L16 37Q101 52 126 76Q177 124 239 271L716 1387L751 1387L1223 259Q1280 123 1326.5 82.5Q1373 42 1456 37L1456 0L921 0L921 37Q1002 41 1030.5 64.0Q1059 87 1059 120Q1059 164 1019 259ZM909 528L679 1076L443 528Z" transform="translate(165.059 176.000) scale(0.087891 -0.087891)" fill="url(#gold)"/><path d="M1185 1356L1200 1038L1162 1038Q1151 1122 1132 1158Q1101 1216 1049.5 1243.5Q998 1271 914 1271L723 1271L723 235Q723 110 750 79Q788 37 867 37L914 37L914 0L339 0L339 37L387 37Q473 37 509 89Q531 121 531 235L531 1271L368 1271Q273 1271 233 1257Q181 1238 144.0 1184.0Q107 1130 100 1038L62 1038L78 1356Z" transform="translate(300.049 176.000) scale(0.087891 -0.087891)" fill="url(#gold)"/><path d="M937 454L412 454L320 240Q286 161 286 122Q286 91 315.5 67.5Q345 44 443 37L443 0L16 0L16 37Q101 52 126 76Q177 124 239 271L716 1387L751 1387L1223 259Q1280 123 1326.5 82.5Q1373 42 1456 37L1456 0L921 0L921 37Q1002 41 1030.5 64.0Q1059 87 1059 120Q1059 164 1019 259ZM909 528L679 1076L443 528Z" transform="translate(415.000 176.000) scale(0.087891 -0.087891)" fill="url(#gold)"/><path d="M1185 1356L1200 1038L1162 1038Q1151 1122 1132 1158Q1101 1216 1049.5 1243.5Q998 1271 914 1271L723 1271L723 235Q723 110 750 79Q788 37 867 37L914 37L914 0L339 0L339 37L387 37Q473 37 509 89Q531 121 531 235L531 1271L368 1271Q273 1271 233 1257Q181 1238 144.0 1184.0Q107 1130 100 1038L62 1038L78 1356Z" transform="translate(549.990 176.000) scale(0.087891 -0.087891)" fill="url(#gold)"/><g stroke="url(#gold)" stroke-width="3.575" stroke-linecap="round" stroke-linejoin="round" fill="none"><path d="M727.94140625 50.22 C659.30140625 101.7 659.30140625 130.3 727.94140625 181.78 C796.58140625 130.3 796.58140625 101.7 727.94140625 50.22Z"/><path d="M727.94140625 70.24000000000001V157.47M705.20440625 87.4L727.94140625 108.85L750.67840625 87.4M700.05640625 108.85L727.94140625 131.73L755.82640625 108.85M727.94140625 144.6L705.20440625 160.32999999999998M727.94140625 144.6L750.67840625 160.32999999999998"/></g><path d="M939 1387L939 918L902 918Q884 1053 837.5 1133.0Q791 1213 705.0 1260.0Q619 1307 527 1307Q423 1307 355.0 1243.5Q287 1180 287 1099Q287 1037 330 986Q392 911 625 786Q815 684 884.5 629.5Q954 575 991.5 501.0Q1029 427 1029 346Q1029 192 909.5 80.5Q790 -31 602 -31Q543 -31 491 -22Q460 -17 362.5 14.5Q265 46 239 46Q214 46 199.5 31.0Q185 16 178 -31L141 -31L141 434L178 434Q204 288 248.0 215.5Q292 143 382.5 95.0Q473 47 581 47Q706 47 778.5 113.0Q851 179 851 269Q851 319 823.5 370.0Q796 421 738 465Q699 495 525.0 592.5Q351 690 277.5 748.0Q204 806 166.0 876.0Q128 946 128 1030Q128 1176 240.0 1281.5Q352 1387 525 1387Q633 1387 754 1334Q810 1309 833 1309Q859 1309 875.5 1324.5Q892 1340 902 1387Z" transform="translate(795.941 176.000) scale(0.087891 -0.087891)" fill="url(#gold)"/><path d="M612 752L1112 255Q1235 132 1322.0 87.5Q1409 43 1496 37L1496 0L851 0L851 37Q909 37 934.5 56.5Q960 76 960 100Q960 124 950.5 143.0Q941 162 888 214L420 677L420 240Q420 137 433 104Q443 79 475 61Q518 37 566 37L612 37L612 0L34 0L34 37L82 37Q166 37 204 86Q228 118 228 240L228 1116Q228 1219 215 1253Q205 1277 174 1295Q130 1319 82 1319L34 1319L34 1356L612 1356L612 1319L566 1319Q519 1319 475 1296Q444 1280 432.0 1248.0Q420 1216 420 1116L420 701Q440 720 557 828Q854 1100 916 1191Q943 1231 943 1261Q943 1284 922.0 1301.5Q901 1319 851 1319L820 1319L820 1356L1318 1356L1318 1319Q1274 1318 1238.0 1307.0Q1202 1296 1150.0 1264.5Q1098 1233 1022 1163Q1000 1143 819 958Z" transform="translate(901.049 176.000) scale(0.087891 -0.087891)" fill="url(#gold)"/><path d="M1384 0L1022 0L563 634Q512 632 480 632Q467 632 452.0 632.5Q437 633 421 634L421 240Q421 112 449 81Q487 37 563 37L616 37L616 0L35 0L35 37L86 37Q172 37 209 93Q230 124 230 240L230 1116Q230 1244 202 1275Q163 1319 86 1319L35 1319L35 1356L529 1356Q745 1356 847.5 1324.5Q950 1293 1021.5 1208.5Q1093 1124 1093 1007Q1093 882 1011.5 790.0Q930 698 759 660L1039 271Q1135 137 1204.0 93.0Q1273 49 1384 37ZM421 697Q440 697 454.0 696.5Q468 696 477 696Q671 696 769.5 780.0Q868 864 868 994Q868 1121 788.5 1200.5Q709 1280 578 1280Q520 1280 421 1261Z" transform="translate(1036.039 176.000) scale(0.087891 -0.087891)" fill="url(#gold)"/><path d="M35 0L35 37L86 37Q172 37 208 92Q230 125 230 240L230 1116Q230 1243 202 1275Q163 1319 86 1319L35 1319L35 1356L587 1356Q891 1356 1049.5 1287.0Q1208 1218 1304.5 1057.0Q1401 896 1401 685Q1401 402 1229 212Q1036 0 641 0ZM422 98Q549 70 635 70Q867 70 1020.0 233.0Q1173 396 1173 675Q1173 956 1020.0 1118.0Q867 1280 627 1280Q537 1280 422 1251Z" transform="translate(374.052 263.000) scale(0.015137 -0.015137)" fill="url(#gold)"/><path d="M749 1387Q1013 1387 1206.5 1186.5Q1400 986 1400 686Q1400 377 1205.0 173.0Q1010 -31 733 -31Q453 -31 262.5 168.0Q72 367 72 683Q72 1006 292 1210Q483 1387 749 1387ZM730 1314Q548 1314 438 1179Q301 1011 301 687Q301 355 443 176Q552 40 731 40Q922 40 1046.5 189.0Q1171 338 1171 659Q1171 1007 1034 1178Q924 1314 730 1314Z" transform="translate(402.439 263.000) scale(0.015137 -0.015137)" fill="url(#gold)"/><path d="M1917 1356L1917 1319Q1864 1319 1831.0 1300.0Q1798 1281 1768 1229Q1748 1194 1705 1062L1327 -31L1287 -31L978 836L671 -31L635 -31L232 1095Q187 1221 175 1244Q155 1282 120.5 1300.5Q86 1319 27 1319L27 1356L529 1356L529 1319L505 1319Q452 1319 424.0 1295.0Q396 1271 396 1237Q396 1202 440 1076L707 315L932 962L892 1076L860 1167Q839 1217 813 1255Q800 1274 781 1287Q756 1305 731 1313Q712 1319 671 1319L671 1356L1199 1356L1199 1319L1163 1319Q1107 1319 1081.0 1295.0Q1055 1271 1055 1230Q1055 1179 1100 1052L1360 315L1618 1062Q1662 1186 1662 1234Q1662 1257 1647.5 1277.0Q1633 1297 1611 1305Q1573 1319 1512 1319L1512 1356Z" transform="translate(430.826 263.000) scale(0.015137 -0.015137)" fill="url(#gold)"/><path d="M-27 1356L341 1356L1170 339L1170 1121Q1170 1246 1142 1277Q1105 1319 1025 1319L978 1319L978 1356L1450 1356L1450 1319L1402 1319Q1316 1319 1280 1267Q1258 1235 1258 1121L1258 -22L1222 -22L328 1070L328 235Q328 110 355 79Q393 37 472 37L520 37L520 0L48 0L48 37L95 37Q182 37 218 89Q240 121 240 235L240 1178Q181 1247 150.5 1269.0Q120 1291 61 1310Q32 1319 -27 1319Z" transform="translate(466.085 263.000) scale(0.015137 -0.015137)" fill="url(#gold)"/><path d="M1174 375L1207 368L1091 0L41 0L41 37L92 37Q178 37 215 93Q236 125 236 241L236 1116Q236 1243 208 1275Q169 1319 92 1319L41 1319L41 1356L655 1356L655 1319Q547 1320 503.5 1299.0Q460 1278 444.0 1246.0Q428 1214 428 1093L428 241Q428 158 444 127Q456 106 481.0 96.0Q506 86 637 86L736 86Q892 86 955.0 109.0Q1018 132 1070.0 190.5Q1122 249 1174 375Z" transform="translate(494.473 263.000) scale(0.015137 -0.015137)" fill="url(#gold)"/><path d="M749 1387Q1013 1387 1206.5 1186.5Q1400 986 1400 686Q1400 377 1205.0 173.0Q1010 -31 733 -31Q453 -31 262.5 168.0Q72 367 72 683Q72 1006 292 1210Q483 1387 749 1387ZM730 1314Q548 1314 438 1179Q301 1011 301 687Q301 355 443 176Q552 40 731 40Q922 40 1046.5 189.0Q1171 338 1171 659Q1171 1007 1034 1178Q924 1314 730 1314Z" transform="translate(519.409 263.000) scale(0.015137 -0.015137)" fill="url(#gold)"/><path d="M937 454L412 454L320 240Q286 161 286 122Q286 91 315.5 67.5Q345 44 443 37L443 0L16 0L16 37Q101 52 126 76Q177 124 239 271L716 1387L751 1387L1223 259Q1280 123 1326.5 82.5Q1373 42 1456 37L1456 0L921 0L921 37Q1002 41 1030.5 64.0Q1059 87 1059 120Q1059 164 1019 259ZM909 528L679 1076L443 528Z" transform="translate(547.796 263.000) scale(0.015137 -0.015137)" fill="url(#gold)"/><path d="M35 0L35 37L86 37Q172 37 208 92Q230 125 230 240L230 1116Q230 1243 202 1275Q163 1319 86 1319L35 1319L35 1356L587 1356Q891 1356 1049.5 1287.0Q1208 1218 1304.5 1057.0Q1401 896 1401 685Q1401 402 1229 212Q1036 0 641 0ZM422 98Q549 70 635 70Q867 70 1020.0 233.0Q1173 396 1173 675Q1173 956 1020.0 1118.0Q867 1280 627 1280Q537 1280 422 1251Z" transform="translate(576.183 263.000) scale(0.015137 -0.015137)" fill="url(#gold)"/><path d="M838 0L314 1141L314 235Q314 110 341 79Q378 37 458 37L506 37L506 0L34 0L34 37L82 37Q168 37 204 89Q226 121 226 235L226 1121Q226 1211 206 1251Q192 1280 154.5 1299.5Q117 1319 34 1319L34 1356L418 1356L910 295L1394 1356L1778 1356L1778 1319L1731 1319Q1644 1319 1608 1267Q1586 1235 1586 1121L1586 235Q1586 110 1614 79Q1651 37 1731 37L1778 37L1778 0L1202 0L1202 37L1250 37Q1337 37 1372 89Q1394 121 1394 235L1394 1141L871 0Z" transform="translate(618.320 263.000) scale(0.015137 -0.015137)" fill="url(#gold)"/><path d="M937 454L412 454L320 240Q286 161 286 122Q286 91 315.5 67.5Q345 44 443 37L443 0L16 0L16 37Q101 52 126 76Q177 124 239 271L716 1387L751 1387L1223 259Q1280 123 1326.5 82.5Q1373 42 1456 37L1456 0L921 0L921 37Q1002 41 1030.5 64.0Q1059 87 1059 120Q1059 164 1019 259ZM909 528L679 1076L443 528Z" transform="translate(651.884 263.000) scale(0.015137 -0.015137)" fill="url(#gold)"/><path d="M-27 1356L341 1356L1170 339L1170 1121Q1170 1246 1142 1277Q1105 1319 1025 1319L978 1319L978 1356L1450 1356L1450 1319L1402 1319Q1316 1319 1280 1267Q1258 1235 1258 1121L1258 -22L1222 -22L328 1070L328 235Q328 110 355 79Q393 37 472 37L520 37L520 0L48 0L48 37L95 37Q182 37 218 89Q240 121 240 235L240 1178Q181 1247 150.5 1269.0Q120 1291 61 1310Q32 1319 -27 1319Z" transform="translate(680.271 263.000) scale(0.015137 -0.015137)" fill="url(#gold)"/><path d="M937 454L412 454L320 240Q286 161 286 122Q286 91 315.5 67.5Q345 44 443 37L443 0L16 0L16 37Q101 52 126 76Q177 124 239 271L716 1387L751 1387L1223 259Q1280 123 1326.5 82.5Q1373 42 1456 37L1456 0L921 0L921 37Q1002 41 1030.5 64.0Q1059 87 1059 120Q1059 164 1019 259ZM909 528L679 1076L443 528Z" transform="translate(708.659 263.000) scale(0.015137 -0.015137)" fill="url(#gold)"/><path d="M1257 1387L1292 959L1257 959Q1204 1119 1120 1200Q999 1317 809 1317Q550 1317 415 1112Q302 939 302 700Q302 506 377.0 346.0Q452 186 573.5 111.5Q695 37 823 37Q898 37 968.0 56.0Q1038 75 1103 112L1103 504Q1103 606 1087.5 637.5Q1072 669 1039.5 685.5Q1007 702 925 702L925 740L1450 740L1450 702L1425 702Q1347 702 1318 650Q1298 613 1298 504L1298 89Q1183 27 1071.0 -2.0Q959 -31 822 -31Q429 -31 225 221Q72 410 72 657Q72 836 158 1000Q260 1195 438 1300Q587 1387 790 1387Q864 1387 924.5 1375.0Q985 1363 1096 1322Q1152 1301 1171 1301Q1190 1301 1203.5 1318.5Q1217 1336 1220 1387Z" transform="translate(737.046 263.000) scale(0.015137 -0.015137)" fill="url(#gold)"/><path d="M428 1282L428 746L726 746Q842 746 881 781Q933 827 939 943L976 943L976 471L939 471Q925 570 911 598Q893 633 852.0 653.0Q811 673 726 673L428 673L428 226Q428 136 436.0 116.5Q444 97 464.0 85.5Q484 74 540 74L770 74Q885 74 937.0 90.0Q989 106 1037 153Q1099 215 1164 340L1204 340L1087 0L42 0L42 37L90 37Q138 37 181 60Q213 76 224.5 108.0Q236 140 236 239L236 1120Q236 1249 210 1279Q174 1319 90 1319L42 1319L42 1356L1087 1356L1102 1059L1063 1059Q1042 1166 1016.5 1206.0Q991 1246 941 1267Q901 1282 800 1282Z" transform="translate(765.433 263.000) scale(0.015137 -0.015137)" fill="url(#gold)"/><path d="M1384 0L1022 0L563 634Q512 632 480 632Q467 632 452.0 632.5Q437 633 421 634L421 240Q421 112 449 81Q487 37 563 37L616 37L616 0L35 0L35 37L86 37Q172 37 209 93Q230 124 230 240L230 1116Q230 1244 202 1275Q163 1319 86 1319L35 1319L35 1356L529 1356Q745 1356 847.5 1324.5Q950 1293 1021.5 1208.5Q1093 1124 1093 1007Q1093 882 1011.5 790.0Q930 698 759 660L1039 271Q1135 137 1204.0 93.0Q1273 49 1384 37ZM421 697Q440 697 454.0 696.5Q468 696 477 696Q671 696 769.5 780.0Q868 864 868 994Q868 1121 788.5 1200.5Q709 1280 578 1280Q520 1280 421 1261Z" transform="translate(790.369 263.000) scale(0.015137 -0.015137)" fill="url(#gold)"/></svg>